<svg xmlns="http://www.w3.org/2000/svg" xmlns:xlink="http://www.w3.org/1999/xlink" width="600" height="182" viewBox="0 0 600 182">
  <defs>
    <linearGradient id="linear-gradient" x1="0.968" y1="1" x2="0.292" y2="0.444" gradientUnits="objectBoundingBox">
      <stop offset="0" stop-color="purple"/>
      <stop offset="1" stop-color="#ec1e77"/>
    </linearGradient>
  </defs>
  <g id="apurple-logo-purple" transform="translate(-3 -28.336)">
    <path id="Path_1" data-name="Path 1" d="M54.726,158s3.812,39.214,42.885,57.24c0,0,34.625,19.291,73.7-6.009,0,0,42.567-28.778,31.131-77.48,0,0-5.4-49.65-63.85-58.505,0,0-.238-12.729-12.786-12.254,0,0-14.136-.791-10.483,18.263,0,0,1.112,6.562-8.18,10.99,0,0-3.018,2.688-9.927.791a12.156,12.156,0,0,1-5.162-4.111s-10.88-16.049-26.843-5.3c0,0-13.58,9.883-3.415,24.746a15.53,15.53,0,0,0,2.541,3s9.212,7.274.4,19.765c0,0-3.574,5.613-13.1,5.218a12.55,12.55,0,0,0-10.006,8.381s-1.429,7.116,1.668,10.436C43.29,153.178,46.228,158.237,54.726,158Z" transform="translate(-13.964 -11.941)" fill="#fff"/>
    <ellipse id="Ellipse_1" data-name="Ellipse 1" cx="9.609" cy="9.592" rx="9.609" ry="9.592" transform="translate(80.788 51.746)" fill="#fff"/>
    <ellipse id="Ellipse_2" data-name="Ellipse 2" cx="9.609" cy="9.592" rx="9.609" ry="9.592" transform="translate(29.722 96.488)" fill="#fff"/>
    <ellipse id="Ellipse_3" data-name="Ellipse 3" cx="9.489" cy="9.472" rx="9.489" ry="9.472" transform="translate(3 84.432)" fill="#fff"/>
    <ellipse id="Ellipse_4" data-name="Ellipse 4" cx="6.655" cy="6.643" rx="6.655" ry="6.643" transform="translate(39.365 50.746)" fill="#fff"/>
    <ellipse id="Ellipse_5" data-name="Ellipse 5" cx="6.63" cy="6.619" rx="6.63" ry="6.619" transform="translate(100.86 28.336)" fill="#fff"/>
    <ellipse id="Ellipse_6" data-name="Ellipse 6" cx="3.809" cy="3.803" rx="3.809" ry="3.803" transform="translate(74.198 30.875)" fill="#fff"/>
    <ellipse id="Ellipse_7" data-name="Ellipse 7" cx="3.809" cy="3.803" rx="3.809" ry="3.803" transform="translate(52.914 31.152)" fill="#fff"/>
    <ellipse id="Ellipse_8" data-name="Ellipse 8" cx="3.809" cy="3.803" rx="3.809" ry="3.803" transform="translate(25.992 34.955)" fill="#fff"/>
    <ellipse id="Ellipse_9" data-name="Ellipse 9" cx="3.809" cy="3.803" rx="3.809" ry="3.803" transform="translate(15.154 60.638)" fill="#fff"/>
    <path id="Path_2" data-name="Path 2" d="M107.775,208.212l44.314-87.837,44.473,87.837H182.426s-10.2-.616-13.942-12.463l-16.315-31.455-11.3,23.307,15.883.528s1.482,15.538-15.459,20.083Z" transform="translate(-38.209 -33.938)" fill="url(#linear-gradient)"/>
    <g id="Group_2" data-name="Group 2" transform="translate(205.811 80.775)">
      <g id="Group_1" data-name="Group 1">
        <path id="Path_3" data-name="Path 3" d="M336.19,150.663V177.3a3.6,3.6,0,0,0,.741,2.459,5.425,5.425,0,0,0,2.646,1.361V182.8H324.495v-1.675a5.432,5.432,0,0,0,2.646-1.361,3.606,3.606,0,0,0,.741-2.459V116.8a3.523,3.523,0,0,0-.741-2.407,5.45,5.45,0,0,0-2.646-1.361v-1.675h38a71.164,71.164,0,0,1,12.437.837,22.616,22.616,0,0,1,7.938,3.035,16.676,16.676,0,0,1,5.874,6.019,18.859,18.859,0,0,1,2.487,9.63,18.488,18.488,0,0,1-13.416,18.186q-5.372,1.6-15.32,1.6Zm0-6.8h27.095a62.1,62.1,0,0,0,8.97-.471,15.05,15.05,0,0,0,5.266-1.832q5.4-3.14,5.4-10.519,0-7.431-5.4-10.571a15.052,15.052,0,0,0-5.24-1.832,61.906,61.906,0,0,0-9-.471H336.19v25.7Z" transform="translate(-324.495 -111.359)" fill="#fff"/>
        <path id="Path_4" data-name="Path 4" d="M454.312,137.492v30.092a44.433,44.433,0,0,0,.688,9.6,8,8,0,0,0,3.017,4.422q4.763,3.768,16.3,3.768,12.752,0,17.252-4.606a8.6,8.6,0,0,0,2.169-4.266,50.509,50.509,0,0,0,.53-8.923V137.492a5.217,5.217,0,0,0-.689-3.062,4.846,4.846,0,0,0-2.7-1.439v-1.413h13.071v1.413a4.935,4.935,0,0,0-2.7,1.413,5.19,5.19,0,0,0-.687,3.088V169.1q0,8.061-1.376,11.357a15.269,15.269,0,0,1-8.52,8.321q-6.192,2.67-17.04,2.669-15.559,0-21.8-5.7a13.5,13.5,0,0,1-4.048-6.123,39.209,39.209,0,0,1-1.032-10.52V137.492a5.2,5.2,0,0,0-.688-3.088,4.939,4.939,0,0,0-2.7-1.413v-1.413H457.7v1.413a4.838,4.838,0,0,0-2.7,1.439A5.211,5.211,0,0,0,454.312,137.492Z" transform="translate(-367.841 -118.755)" fill="#fff"/>
        <path id="Path_5" data-name="Path 5" d="M567.927,163.658v20.62a5.209,5.209,0,0,0,.688,3.061,4.826,4.826,0,0,0,2.7,1.439v1.413H556.973v-1.414a4.73,4.73,0,0,0,2.725-1.439,5.379,5.379,0,0,0,.662-3.061V137.491a5.2,5.2,0,0,0-.689-3.088,4.939,4.939,0,0,0-2.7-1.413v-1.413h35.192a46.627,46.627,0,0,1,9.764.837,17.978,17.978,0,0,1,6.588,2.826q6.137,4.292,6.139,12.56,0,6.751-4.286,10.65t-12.595,4.684l14.87,23.341a4.876,4.876,0,0,0,1.561,1.627,8.337,8.337,0,0,0,2.725.675v1.414H602.263v-1.414q2.065-.418,2.065-1.308a6.576,6.576,0,0,0-1.218-2.512l-13.634-21.3H567.927Zm0-5.7h22.544a62.373,62.373,0,0,0,8.177-.393,13.579,13.579,0,0,0,4.631-1.44q4.18-2.3,4.18-8.007,0-5.495-3.916-8.269-3.6-2.564-12.224-2.564H567.927Z" transform="translate(-409.274 -118.755)" fill="#fff"/>
        <path id="Path_6" data-name="Path 6" d="M677.129,163.868V184.75a3.606,3.606,0,0,0,.715,2.407,5.143,5.143,0,0,0,2.513,1.361v1.674H666.174v-1.675a5.426,5.426,0,0,0,2.646-1.361,3.521,3.521,0,0,0,.742-2.408V136.654a3.074,3.074,0,0,0-.767-2.276,5.776,5.776,0,0,0-2.62-1.23v-1.57h32.811a63.446,63.446,0,0,1,9.922.576,17.336,17.336,0,0,1,6.059,2.2,13.134,13.134,0,0,1,5.081,5.469,17.02,17.02,0,0,1,1.852,7.928,16.733,16.733,0,0,1-1.826,7.851,13.194,13.194,0,0,1-5.16,5.443,17.212,17.212,0,0,1-6.086,2.25,62.38,62.38,0,0,1-9.843.575H677.129Zm0-5.7h20.851a56.522,56.522,0,0,0,8.361-.445,11.716,11.716,0,0,0,4.6-1.7q3.7-2.407,3.7-8.321,0-5.809-3.7-8.269a11.713,11.713,0,0,0-4.577-1.7,56.53,56.53,0,0,0-8.387-.445H677.129v20.882Z" transform="translate(-449.096 -118.755)" fill="#fff"/>
        <path id="Path_7" data-name="Path 7" d="M779.5,184.488h36.145a5.557,5.557,0,0,0,3.149-.67,4.718,4.718,0,0,0,1.456-2.68h1.428v12.4h-1.428a4.757,4.757,0,0,0-1.456-2.669,5.489,5.489,0,0,0-3.149-.68h-47.1v-1.414a4.823,4.823,0,0,0,2.7-1.439,5.2,5.2,0,0,0,.689-3.061V137.491a5.193,5.193,0,0,0-.689-3.088,4.939,4.939,0,0,0-2.7-1.413v-1.413h14.341v1.413a4.943,4.943,0,0,0-2.7,1.413,5.2,5.2,0,0,0-.688,3.088v47Z" transform="translate(-486.428 -118.755)" fill="#fff"/>
        <path id="Path_8" data-name="Path 8" d="M874.957,160.837v21.719h36.622a5.554,5.554,0,0,0,3.148-.671,4.5,4.5,0,0,0,1.4-2.679h1.481v12.4h-1.481a4.628,4.628,0,0,0-1.376-2.669,5.347,5.347,0,0,0-3.122-.68H864v-1.413a4.728,4.728,0,0,0,2.725-1.439,5.374,5.374,0,0,0,.662-3.061V135.559a5.193,5.193,0,0,0-.688-3.088,4.939,4.939,0,0,0-2.7-1.413v-1.413H911.26a5.341,5.341,0,0,0,3.122-.68,4.851,4.851,0,0,0,1.429-2.669h1.429v12.4h-1.429a4.815,4.815,0,0,0-1.429-2.68,5.413,5.413,0,0,0-3.122-.67h-36.3v19.783h23.126a5.346,5.346,0,0,0,3.123-.68,4.856,4.856,0,0,0,1.428-2.669h1.429v12.4h-1.429a4.719,4.719,0,0,0-1.456-2.68,5.432,5.432,0,0,0-3.1-.67Z" transform="translate(-521.238 -116.823)" fill="#fff"/>
      </g>
    </g>
    <g id="Group_3" data-name="Group 3" transform="translate(205.942 166.778)">
      <path id="Path_9" data-name="Path 9" d="M337.255,248.208l-1.331,2.4-.26-.139a2.226,2.226,0,0,0,.158-.52q0-.279-.689-.6a9.257,9.257,0,0,0-3.964-.873,6.608,6.608,0,0,0-3,.64,2.669,2.669,0,0,0-.973.816,1.787,1.787,0,0,0-.359,1.057,1.536,1.536,0,0,0,.279.876,1.719,1.719,0,0,0,.735.617,4.067,4.067,0,0,0,1.187.32q.684.089,2.229.135a30.4,30.4,0,0,1,3.062.2,4.409,4.409,0,0,1,1.517.469,2.883,2.883,0,0,1,1.582,2.685A3.391,3.391,0,0,1,336,259.1a7.02,7.02,0,0,1-4.383,1.226A10.816,10.816,0,0,1,328.8,260a14.678,14.678,0,0,1-2.866-1.2,2.465,2.465,0,0,0-.549-.214q-.139,0-.437.334l-.252-.158,1.4-2.332.26.148a1.522,1.522,0,0,0-.177.5q0,.3,1.191.92a9.4,9.4,0,0,0,2.062.8,8.908,8.908,0,0,0,2.154.246,5.4,5.4,0,0,0,3.574-1.031,2.082,2.082,0,0,0,.81-1.635,1.751,1.751,0,0,0-1.387-1.719,3.725,3.725,0,0,0-.926-.2q-.479-.041-2.722-.125a17.5,17.5,0,0,1-2.508-.242,5.343,5.343,0,0,1-1.615-.576,2.747,2.747,0,0,1-1.047-1.041,2.87,2.87,0,0,1-.386-1.459,3.1,3.1,0,0,1,1-2.313,5.141,5.141,0,0,1,2.056-1.11,9.732,9.732,0,0,1,2.876-.4,10.53,10.53,0,0,1,2.369.252,13.718,13.718,0,0,1,2.471.87,1.5,1.5,0,0,0,.382.131c.112,0,.264-.124.456-.374Z" transform="translate(-324.7 -247.196)" fill="#fff"/>
      <path id="Path_10" data-name="Path 10" d="M356.889,251.9v8.286a.965.965,0,0,0,.116.544.832.832,0,0,0,.479.255v.251h-2.522v-.251a.85.85,0,0,0,.475-.255.935.935,0,0,0,.12-.544V251.9h-3.4a.944.944,0,0,0-.549.119.857.857,0,0,0-.252.476h-.252v-2.2h.252a.86.86,0,0,0,.252.474.935.935,0,0,0,.549.12h8.125a.934.934,0,0,0,.549-.12.865.865,0,0,0,.251-.474h.251v2.2h-.251a.838.838,0,0,0-.256-.476.947.947,0,0,0-.544-.119Z" transform="translate(-334.33 -248.327)" fill="#fff"/>
      <path id="Path_11" data-name="Path 11" d="M376.339,256.331v3.855h6.44a.97.97,0,0,0,.554-.119.8.8,0,0,0,.247-.476h.261v2.2h-.261a.824.824,0,0,0-.242-.474.933.933,0,0,0-.549-.121h-8.376v-.251a.831.831,0,0,0,.479-.255.962.962,0,0,0,.116-.544v-8.305a.928.928,0,0,0-.121-.548.865.865,0,0,0-.474-.251v-.251h8.31a.933.933,0,0,0,.549-.121.864.864,0,0,0,.252-.474h.251v2.2h-.251a.851.851,0,0,0-.252-.476.945.945,0,0,0-.549-.119h-6.384v3.512h4.067a.934.934,0,0,0,.549-.12.867.867,0,0,0,.252-.474h.252v2.2h-.252a.838.838,0,0,0-.256-.476.949.949,0,0,0-.544-.119Z" transform="translate(-342.829 -248.295)" fill="#fff"/>
      <path id="Path_12" data-name="Path 12" d="M399.115,256.87v3.707a.644.644,0,0,0,.125.427.909.909,0,0,0,.442.242v.3h-2.494v-.3a.951.951,0,0,0,.465-.242.631.631,0,0,0,.13-.427v-8.538a.549.549,0,0,0-.135-.4,1,1,0,0,0-.46-.219v-.278h5.77a11.089,11.089,0,0,1,1.745.1,3.023,3.023,0,0,1,1.066.39,2.324,2.324,0,0,1,.893.971,3.037,3.037,0,0,1,.326,1.407,2.992,2.992,0,0,1-.321,1.393,2.336,2.336,0,0,1-.907.966,3.012,3.012,0,0,1-1.071.4,10.83,10.83,0,0,1-1.731.1Zm0-1.013h3.666a9.864,9.864,0,0,0,1.47-.079,2.043,2.043,0,0,0,.81-.3,1.99,1.99,0,0,0,0-2.944,2.053,2.053,0,0,0-.805-.3,9.824,9.824,0,0,0-1.475-.079h-3.666v3.707Z" transform="translate(-351.135 -248.638)" fill="#fff"/>
      <path id="Path_13" data-name="Path 13" d="M436.727,251.9v8.286a.962.962,0,0,0,.116.544.833.833,0,0,0,.479.255v.251H434.8v-.251a.849.849,0,0,0,.474-.255.931.931,0,0,0,.121-.544V251.9H432a.944.944,0,0,0-.549.119.857.857,0,0,0-.251.476h-.251v-2.2h.251a.863.863,0,0,0,.251.474.936.936,0,0,0,.549.12h8.124a.933.933,0,0,0,.549-.12.866.866,0,0,0,.252-.474h.251v2.2h-.251a.84.84,0,0,0-.256-.476.948.948,0,0,0-.545-.119Z" transform="translate(-363.445 -248.327)" fill="#fff"/>
      <path id="Path_14" data-name="Path 14" d="M459.475,250.786a6.687,6.687,0,0,1,4.486,1.449,5.29,5.29,0,0,1,.921,6.93q-1.685,2.472-5.388,2.471a6.657,6.657,0,0,1-4.467-1.449,4.978,4.978,0,0,1-1.815-3.976,5.156,5.156,0,0,1,.885-2.954,5.337,5.337,0,0,1,2.634-2.016A8.093,8.093,0,0,1,459.475,250.786Zm0,1.078a4.93,4.93,0,0,0-3.657,1.393,4.212,4.212,0,0,0,0,5.908,5.546,5.546,0,0,0,7.352,0,3.948,3.948,0,0,0,1.209-2.9,4.023,4.023,0,0,0-1.209-3.01A5.1,5.1,0,0,0,459.475,251.864Z" transform="translate(-371.565 -248.509)" fill="#fff"/>
      <path id="Path_15" data-name="Path 15" d="M487.079,253l-2.549,7.091a2.843,2.843,0,0,0-.186.66q0,.4.54.539v.251h-2.9v-.251q.512-.084.512-.483a2.3,2.3,0,0,0-.168-.715l-2.86-7.692a2.2,2.2,0,0,0-.358-.706,1.276,1.276,0,0,0-.573-.306v-.251h2.732v.251q-.531.13-.531.5a2.035,2.035,0,0,0,.14.511l2.661,7.345,2.609-7.345a1.811,1.811,0,0,0,.13-.5q0-.372-.5-.511v-.251h2.811v.251q-.539.139-.54.492a1.654,1.654,0,0,0,.121.52l2.667,7.345,2.587-7.345a1.38,1.38,0,0,0,.094-.455q0-.427-.587-.557v-.251h2.694v.251a1.264,1.264,0,0,0-.62.311,1.926,1.926,0,0,0-.4.7l-2.795,7.841a1.706,1.706,0,0,0-.13.539c0,.31.173.48.521.511v.251h-2.878v-.251q.494-.084.494-.492a2.445,2.445,0,0,0-.177-.706Z" transform="translate(-380.8 -248.638)" fill="#fff"/>
      <path id="Path_16" data-name="Path 16" d="M517.4,258.616h-5.469l-.785,1.747a1.338,1.338,0,0,0-.148.483q0,.316.485.446v.251h-2.568v-.251A1,1,0,0,0,509.5,261a3.531,3.531,0,0,0,.5-.869l3.453-7.488a2.57,2.57,0,0,0,.289-.855q0-.325-.465-.4v-.251H516.3v.251q-.465.1-.465.4a4.011,4.011,0,0,0,.373.994l3.314,7.2a4.35,4.35,0,0,0,.577.985,1,1,0,0,0,.614.325v.251H518v-.251q.435-.093.435-.316a2.471,2.471,0,0,0-.224-.613Zm-.436-1.013-2.276-5.1-2.3,5.1Z" transform="translate(-391.879 -248.638)" fill="#fff"/>
      <path id="Path_17" data-name="Path 17" d="M535.975,256.832v3.66a.924.924,0,0,0,.121.544.846.846,0,0,0,.474.255v.251h-2.522v-.251a.83.83,0,0,0,.479-.255.963.963,0,0,0,.117-.544v-8.306a.929.929,0,0,0-.12-.548.867.867,0,0,0-.475-.251v-.251h6.189a8.131,8.131,0,0,1,1.717.148,3.145,3.145,0,0,1,1.159.5,2.557,2.557,0,0,1,1.079,2.23,2.438,2.438,0,0,1-.754,1.891,3.719,3.719,0,0,1-2.215.831l2.615,4.143a.857.857,0,0,0,.275.289,1.464,1.464,0,0,0,.479.119v.251h-2.58v-.251q.363-.074.363-.232a1.166,1.166,0,0,0-.214-.446l-2.4-3.781h-3.789Zm0-1.012h3.964a10.926,10.926,0,0,0,1.437-.069,2.376,2.376,0,0,0,.815-.256,1.488,1.488,0,0,0,.735-1.421,1.687,1.687,0,0,0-.688-1.467,3.806,3.806,0,0,0-2.15-.455h-4.114v3.669Z" transform="translate(-401.044 -248.637)" fill="#fff"/>
      <path id="Path_18" data-name="Path 18" d="M558.739,260.493v-8.306a.956.956,0,0,0-.117-.543.83.83,0,0,0-.479-.255v-.251h5.267a7.666,7.666,0,0,1,3.146.492,4.391,4.391,0,0,1,2.01,2.062,5.764,5.764,0,0,1,.633,2.648,5.692,5.692,0,0,1-.837,3.019,4.092,4.092,0,0,1-1.838,1.691,7.9,7.9,0,0,1-3.114.492h-5.267v-.251a.826.826,0,0,0,.478-.255A.954.954,0,0,0,558.739,260.493Zm1.33.037h3.267a5.57,5.57,0,0,0,2.708-.5,3.31,3.31,0,0,0,1.415-1.728,5.4,5.4,0,0,0,.344-1.96,4.533,4.533,0,0,0-.977-3.048,2.948,2.948,0,0,0-1.336-.883,7.166,7.166,0,0,0-2.155-.26h-3.267v8.38Z" transform="translate(-409.83 -248.638)" fill="#fff"/>
      <path id="Path_19" data-name="Path 19" d="M593.179,251.547l-1.024,2.025-.224-.112a2.6,2.6,0,0,0,.047-.372q0-.223-.6-.539a6.551,6.551,0,0,0-3.127-.687,5.3,5.3,0,0,0-2.513.548,1.71,1.71,0,0,0-1.033,1.552,1.337,1.337,0,0,0,.26.8,1.394,1.394,0,0,0,.7.506,4.1,4.1,0,0,0,.949.2q.511.047,2.2.112a15.976,15.976,0,0,1,2.127.176,3.9,3.9,0,0,1,1.233.418,2.19,2.19,0,0,1,.866.887,2.607,2.607,0,0,1,.316,1.268,2.689,2.689,0,0,1-1.182,2.295,6.329,6.329,0,0,1-3.76,1.013,9.057,9.057,0,0,1-2.424-.353,10.563,10.563,0,0,1-2.359-.966.488.488,0,0,0-.224-.093q-.14,0-.419.325l-.214-.139,1.182-1.979.223.13-.038.148a.841.841,0,0,0-.047.242q0,.259.95.761a7.019,7.019,0,0,0,3.322.845,5.659,5.659,0,0,0,2.615-.539,2.132,2.132,0,0,0,.8-.7,1.625,1.625,0,0,0,.3-.925,1.341,1.341,0,0,0-.251-.8,1.365,1.365,0,0,0-.661-.5,4.162,4.162,0,0,0-.851-.186q-.471-.056-1.773-.1-1.536-.064-2.2-.153a5.907,5.907,0,0,1-1.247-.3,2.559,2.559,0,0,1-1.2-.873,2.412,2.412,0,0,1-.457-1.467,2.647,2.647,0,0,1,1.359-2.351,6.513,6.513,0,0,1,3.527-.873,9.638,9.638,0,0,1,3.928.873,1.831,1.831,0,0,0,.344.12c.1,0,.217-.115.353-.344Z" transform="translate(-418.809 -248.509)" fill="#fff"/>
      <path id="Path_20" data-name="Path 20" d="M620.005,260.493v-8.306a.966.966,0,0,0-.117-.543.833.833,0,0,0-.479-.255v-.251h5.267a7.663,7.663,0,0,1,3.145.492,4.391,4.391,0,0,1,2.011,2.062,5.755,5.755,0,0,1,.633,2.648,5.69,5.69,0,0,1-.837,3.019,4.089,4.089,0,0,1-1.838,1.691,7.9,7.9,0,0,1-3.113.492h-5.268v-.251a.829.829,0,0,0,.479-.255A.964.964,0,0,0,620.005,260.493Zm1.331.037H624.6a5.57,5.57,0,0,0,2.708-.5,3.31,3.31,0,0,0,1.415-1.728,5.4,5.4,0,0,0,.344-1.96,4.53,4.53,0,0,0-.977-3.048,2.952,2.952,0,0,0-1.336-.883,7.167,7.167,0,0,0-2.155-.26h-3.267v8.38Z" transform="translate(-432.173 -248.638)" fill="#fff"/>
      <path id="Path_21" data-name="Path 21" d="M645.418,260.493v-8.306a.93.93,0,0,0-.12-.548.867.867,0,0,0-.475-.251v-.251h2.522v.251a.861.861,0,0,0-.474.251.93.93,0,0,0-.121.548v8.306a.93.93,0,0,0,.121.543.848.848,0,0,0,.474.255v.251h-2.522v-.251a.849.849,0,0,0,.475-.255A.934.934,0,0,0,645.418,260.493Z" transform="translate(-441.44 -248.638)" fill="#fff"/>
      <path id="Path_22" data-name="Path 22" d="M668.264,252.007l-1.281,2.044-.212-.13a2.039,2.039,0,0,0,.092-.436q0-.242-.884-.753a6.093,6.093,0,0,0-3.042-.808,4.808,4.808,0,0,0-3.274,1.133,4.087,4.087,0,0,0-1.451,3.242,3.961,3.961,0,0,0,1.331,3.084,4.934,4.934,0,0,0,3.462,1.2,6.553,6.553,0,0,0,2.057-.32,4.984,4.984,0,0,0,1.656-.887V257.46h-2.345a.957.957,0,0,0-.553.12.808.808,0,0,0-.247.474h-.251v-2.2h.251a.8.8,0,0,0,.247.476.961.961,0,0,0,.552.119h4.106v.251a.8.8,0,0,0-.476.247.963.963,0,0,0-.12.552v1.078a.966.966,0,0,0,.12.553.8.8,0,0,0,.476.246v.214a8.382,8.382,0,0,1-5.625,2.072A6.234,6.234,0,0,1,658.7,260.3a5.278,5.278,0,0,1-1.358-1.765,5.167,5.167,0,0,1-.53-2.276,5.093,5.093,0,0,1,1.062-3.149,5.493,5.493,0,0,1,2.522-1.83,7.138,7.138,0,0,1,2.513-.436,7.5,7.5,0,0,1,2.107.278,12.344,12.344,0,0,1,2.286.994.8.8,0,0,0,.307.111c.074,0,.221-.124.437-.371Z" transform="translate(-445.814 -248.531)" fill="#fff"/>
      <path id="Path_23" data-name="Path 23" d="M683.7,260.493v-8.306a.934.934,0,0,0-.12-.548.868.868,0,0,0-.475-.251v-.251h2.522v.251a.862.862,0,0,0-.475.251.93.93,0,0,0-.121.548v8.306a.93.93,0,0,0,.121.543.848.848,0,0,0,.475.255v.251h-2.522v-.251a.85.85,0,0,0,.475-.255A.938.938,0,0,0,683.7,260.493Z" transform="translate(-455.402 -248.638)" fill="#fff"/>
      <path id="Path_24" data-name="Path 24" d="M699.753,251.9v8.286a.968.968,0,0,0,.116.544.831.831,0,0,0,.479.255v.251h-2.521v-.251a.847.847,0,0,0,.474-.255.93.93,0,0,0,.121-.544V251.9h-3.4a.944.944,0,0,0-.549.119.857.857,0,0,0-.251.476h-.251v-2.2h.251a.862.862,0,0,0,.251.474.936.936,0,0,0,.549.12h8.124a.933.933,0,0,0,.549-.12.861.861,0,0,0,.251-.474h.252v2.2h-.252a.842.842,0,0,0-.255-.476.949.949,0,0,0-.545-.119Z" transform="translate(-459.364 -248.327)" fill="#fff"/>
      <path id="Path_25" data-name="Path 25" d="M717.566,260.493v-8.306a.928.928,0,0,0-.121-.548.866.866,0,0,0-.475-.251v-.251h2.522v.251a.864.864,0,0,0-.475.251.93.93,0,0,0-.12.548v8.306a.93.93,0,0,0,.12.543.848.848,0,0,0,.475.255v.251H716.97v-.251a.848.848,0,0,0,.475-.255A.931.931,0,0,0,717.566,260.493Z" transform="translate(-467.75 -248.638)" fill="#fff"/>
      <path id="Path_26" data-name="Path 26" d="M737.563,250.795v.158l-7.075,9.234h6.041a.968.968,0,0,0,.553-.119.837.837,0,0,0,.256-.476h.251v2.2h-.251a.845.845,0,0,0-.256-.474.959.959,0,0,0-.553-.12h-8.283V261l7.138-9.188H729.4a.946.946,0,0,0-.549.119.857.857,0,0,0-.252.476h-.251v-2.2h.251a.865.865,0,0,0,.252.474.936.936,0,0,0,.549.121h8.161Z" transform="translate(-471.863 -248.295)" fill="#fff"/>
      <path id="Path_27" data-name="Path 27" d="M757.034,258.616h-5.469l-.785,1.747a1.333,1.333,0,0,0-.148.483q0,.316.485.446v.251h-2.568v-.251a.99.99,0,0,0,.581-.292,3.517,3.517,0,0,0,.5-.869l3.453-7.488a2.575,2.575,0,0,0,.289-.855q0-.325-.465-.4v-.251h3.025v.251q-.465.1-.465.4a4.044,4.044,0,0,0,.372.994l3.314,7.2a4.347,4.347,0,0,0,.576.985,1,1,0,0,0,.615.325v.251h-2.713v-.251q.435-.093.435-.316a2.465,2.465,0,0,0-.223-.613ZM756.6,257.6l-2.275-5.1-2.3,5.1Z" transform="translate(-479.266 -248.638)" fill="#fff"/>
      <path id="Path_28" data-name="Path 28" d="M777.938,251.9v8.286a.964.964,0,0,0,.116.544.832.832,0,0,0,.48.255v.251h-2.523v-.251a.847.847,0,0,0,.475-.255.931.931,0,0,0,.121-.544V251.9h-3.4a.941.941,0,0,0-.549.119.856.856,0,0,0-.252.476h-.252v-2.2h.252a.859.859,0,0,0,.252.474.934.934,0,0,0,.549.12h8.125a.933.933,0,0,0,.549-.12.864.864,0,0,0,.252-.474h.252v2.2h-.252a.843.843,0,0,0-.256-.476.947.947,0,0,0-.544-.119Z" transform="translate(-487.875 -248.327)" fill="#fff"/>
      <path id="Path_29" data-name="Path 29" d="M795.749,260.493v-8.306a.932.932,0,0,0-.12-.548.866.866,0,0,0-.475-.251v-.251h2.522v.251a.86.86,0,0,0-.474.251.93.93,0,0,0-.121.548v8.306a.93.93,0,0,0,.121.543.847.847,0,0,0,.474.255v.251h-2.522v-.251a.848.848,0,0,0,.475-.255A.936.936,0,0,0,795.749,260.493Z" transform="translate(-496.262 -248.638)" fill="#fff"/>
      <path id="Path_30" data-name="Path 30" d="M813.411,250.786a6.689,6.689,0,0,1,4.486,1.449,5.289,5.289,0,0,1,.921,6.93q-1.685,2.472-5.388,2.471a6.658,6.658,0,0,1-4.467-1.449,4.979,4.979,0,0,1-1.814-3.976,5.153,5.153,0,0,1,.884-2.954,5.336,5.336,0,0,1,2.634-2.016A8.093,8.093,0,0,1,813.411,250.786Zm0,1.078a4.93,4.93,0,0,0-3.657,1.393,4.212,4.212,0,0,0,0,5.908,5.546,5.546,0,0,0,7.352,0,3.947,3.947,0,0,0,1.21-2.9,4.023,4.023,0,0,0-1.21-3.01A5.1,5.1,0,0,0,813.411,251.864Z" transform="translate(-500.636 -248.509)" fill="#fff"/>
      <path id="Path_31" data-name="Path 31" d="M836.636,252.763v7.73a.962.962,0,0,0,.116.543.83.83,0,0,0,.48.255v.251h-2.3v-.251a.827.827,0,0,0,.479-.255.961.961,0,0,0,.117-.543v-8.306a.928.928,0,0,0-.121-.548.864.864,0,0,0-.474-.251v-.251h3.387v.251q-.484.157-.484.483a1.1,1.1,0,0,0,.354.669l6.152,6.875v-7.228a.923.923,0,0,0-.122-.548.863.863,0,0,0-.474-.251v-.251h2.3v.251a.863.863,0,0,0-.475.251.927.927,0,0,0-.121.548v8.305a.954.954,0,0,0,.116.544.826.826,0,0,0,.479.255v.251h-2.727v-.251q.484-.121.484-.381,0-.2-.447-.7Z" transform="translate(-510.768 -248.638)" fill="#fff"/>
    </g>
    <line id="Line_1" data-name="Line 1" x2="397.185" transform="translate(205.815 160.987)"/>
  </g>
</svg>
