<svg xmlns="http://www.w3.org/2000/svg" xmlns:xlink="http://www.w3.org/1999/xlink" width="600" height="182" viewBox="0 0 600 182">
  <defs>
    <linearGradient id="linear-gradient" y1="0.5" x2="1" y2="0.5" gradientUnits="objectBoundingBox">
      <stop offset="0" stop-color="#ec1e77"/>
      <stop offset="0.142" stop-color="#dc1f78"/>
      <stop offset="1" stop-color="#7d277d"/>
    </linearGradient>
  </defs>
  <g id="apurple-logo-purple_20_4_" data-name="apurple-logo-purple%20(4)" transform="translate(-3 -28.336)">
    <path id="Path_367475" data-name="Path 367475" d="M54.693,158.03s3.8,39.226,42.782,57.258c0,0,34.542,19.3,73.521-6.01,0,0,42.465-28.787,31.056-77.5,0,0-5.387-49.666-63.7-58.523,0,0-.238-12.733-12.755-12.258,0,0-14.1-.791-10.458,18.269,0,0,1.109,6.564-8.16,10.993,0,0-3.011,2.689-9.9.791a12.129,12.129,0,0,1-5.15-4.112s-10.854-16.054-26.778-5.3c0,0-13.548,9.886-3.407,24.754a15.526,15.526,0,0,0,2.535,3.005s9.19,7.276.4,19.771c0,0-3.565,5.615-13.072,5.22a12.523,12.523,0,0,0-9.982,8.383s-1.426,7.118,1.664,10.439C43.285,153.206,46.216,158.267,54.693,158.03Z" transform="translate(-14.023 -11.991)" fill="url(#linear-gradient)"/>
    <ellipse id="Ellipse_3967" data-name="Ellipse 3967" cx="9.586" cy="9.569" rx="9.586" ry="9.569" transform="translate(80.602 51.69)" fill="#f11878"/>
    <ellipse id="Ellipse_3968" data-name="Ellipse 3968" cx="9.586" cy="9.569" rx="9.586" ry="9.569" transform="translate(29.658 96.507)" fill="#f11878"/>
    <ellipse id="Ellipse_3969" data-name="Ellipse 3969" cx="9.466" cy="9.45" rx="9.466" ry="9.45" transform="translate(3 84.447)" fill="#f11878"/>
    <ellipse id="Ellipse_3970" data-name="Ellipse 3970" cx="6.639" cy="6.627" rx="6.639" ry="6.627" transform="translate(39.278 50.692)" fill="#f11878"/>
    <ellipse id="Ellipse_3971" data-name="Ellipse 3971" cx="6.614" cy="6.603" rx="6.614" ry="6.603" transform="translate(100.625 28.336)" fill="#f11878"/>
    <ellipse id="Ellipse_3972" data-name="Ellipse 3972" cx="3.8" cy="3.794" rx="3.8" ry="3.794" transform="translate(74.027 30.869)" fill="#f11878"/>
    <ellipse id="Ellipse_3973" data-name="Ellipse 3973" cx="3.8" cy="3.794" rx="3.8" ry="3.794" transform="translate(52.795 31.145)" fill="#f11878"/>
    <ellipse id="Ellipse_3974" data-name="Ellipse 3974" cx="3.8" cy="3.794" rx="3.8" ry="3.794" transform="translate(25.937 34.939)" fill="#f11878"/>
    <ellipse id="Ellipse_3975" data-name="Ellipse 3975" cx="3.8" cy="3.794" rx="3.8" ry="3.794" transform="translate(15.125 60.641)" fill="#f11878"/>
    <path id="Path_367476" data-name="Path 367476" d="M107.775,208l44.208-87.626L196.349,208h-14.1s-10.176-.614-13.909-12.433l-16.276-31.38-11.277,23.251,15.845.527s1.479,15.5-15.422,20.035Z" transform="translate(-38.368 -33.808)" fill="#fff"/>
    <g id="Group_71103" data-name="Group 71103" transform="translate(206.764 80.863)">
      <g id="Group_71102" data-name="Group 71102">
        <path id="Path_367477" data-name="Path 367477" d="M336.162,150.569v26.575a3.6,3.6,0,0,0,.739,2.454,5.413,5.413,0,0,0,2.64,1.358v1.67H324.495v-1.671a5.419,5.419,0,0,0,2.64-1.358,3.6,3.6,0,0,0,.739-2.454V116.789a3.515,3.515,0,0,0-.739-2.4,5.438,5.438,0,0,0-2.64-1.358v-1.671H362.4a71,71,0,0,1,12.407.835,22.561,22.561,0,0,1,7.919,3.028,16.637,16.637,0,0,1,5.86,6,18.812,18.812,0,0,1,2.481,9.607,18.443,18.443,0,0,1-13.383,18.143q-5.359,1.593-15.284,1.592Zm0-6.787h27.03a61.955,61.955,0,0,0,8.949-.469,15.017,15.017,0,0,0,5.253-1.828q5.385-3.133,5.385-10.494,0-7.413-5.385-10.546a15.018,15.018,0,0,0-5.227-1.827,61.768,61.768,0,0,0-8.975-.47h-27.03v25.634Z" transform="translate(-324.495 -111.359)" fill="purple"/>
        <path id="Path_367478" data-name="Path 367478" d="M454.286,137.478V167.5a44.3,44.3,0,0,0,.686,9.581,7.98,7.98,0,0,0,3.009,4.412q4.752,3.759,16.261,3.759,12.721,0,17.21-4.595a8.572,8.572,0,0,0,2.164-4.255,50.413,50.413,0,0,0,.529-8.9v-30.02a5.206,5.206,0,0,0-.687-3.055,4.834,4.834,0,0,0-2.692-1.436v-1.41h13.04v1.41a4.924,4.924,0,0,0-2.692,1.41,5.179,5.179,0,0,0-.686,3.081v31.533q0,8.041-1.373,11.329a15.233,15.233,0,0,1-8.5,8.3q-6.178,2.664-17,2.663-15.521,0-21.751-5.69a13.468,13.468,0,0,1-4.039-6.109,39.113,39.113,0,0,1-1.029-10.494V137.478a5.188,5.188,0,0,0-.686-3.081,4.929,4.929,0,0,0-2.692-1.41v-1.41h14.307v1.41a4.825,4.825,0,0,0-2.692,1.436A5.2,5.2,0,0,0,454.286,137.478Z" transform="translate(-368.022 -118.786)" fill="purple"/>
        <path id="Path_367479" data-name="Path 367479" d="M567.9,163.581v20.571a5.2,5.2,0,0,0,.686,3.054,4.814,4.814,0,0,0,2.692,1.436v1.41H556.973v-1.41a4.719,4.719,0,0,0,2.719-1.436,5.367,5.367,0,0,0,.66-3.054V137.477a5.183,5.183,0,0,0-.686-3.081,4.929,4.929,0,0,0-2.692-1.41v-1.41h35.108a46.518,46.518,0,0,1,9.74.835,17.94,17.94,0,0,1,6.573,2.819q6.122,4.282,6.124,12.53,0,6.735-4.276,10.625t-12.565,4.673l14.835,23.285a4.869,4.869,0,0,0,1.557,1.623,8.322,8.322,0,0,0,2.719.673v1.411H602.154v-1.41q2.059-.417,2.06-1.305A6.561,6.561,0,0,0,603,184.83l-13.6-21.249H567.9Zm0-5.69h22.49a62.217,62.217,0,0,0,8.156-.392,13.546,13.546,0,0,0,4.62-1.436q4.17-2.3,4.17-7.988,0-5.482-3.907-8.249-3.591-2.558-12.2-2.558H567.9Z" transform="translate(-409.628 -118.785)" fill="purple"/>
        <path id="Path_367480" data-name="Path 367480" d="M677.1,163.79v20.832a3.6,3.6,0,0,0,.713,2.4,5.133,5.133,0,0,0,2.507,1.358v1.67H666.174v-1.671a5.416,5.416,0,0,0,2.64-1.358,3.513,3.513,0,0,0,.739-2.4V136.642a3.066,3.066,0,0,0-.765-2.271,5.767,5.767,0,0,0-2.614-1.227v-1.567h32.732a63.3,63.3,0,0,1,9.9.574,17.293,17.293,0,0,1,6.045,2.193,13.1,13.1,0,0,1,5.069,5.456,16.978,16.978,0,0,1,1.848,7.909,16.7,16.7,0,0,1-1.822,7.832,13.163,13.163,0,0,1-5.147,5.43,17.177,17.177,0,0,1-6.071,2.245,62.226,62.226,0,0,1-9.82.574H677.1Zm0-5.69h20.8a56.391,56.391,0,0,0,8.341-.443,11.691,11.691,0,0,0,4.593-1.7q3.7-2.4,3.7-8.3,0-5.795-3.7-8.249a11.688,11.688,0,0,0-4.567-1.7,56.386,56.386,0,0,0-8.367-.444H677.1V158.1Z" transform="translate(-449.617 -118.786)" fill="purple"/>
        <path id="Path_367481" data-name="Path 367481" d="M779.473,184.361h36.058a5.541,5.541,0,0,0,3.141-.669,4.7,4.7,0,0,0,1.452-2.673h1.425v12.373h-1.425a4.742,4.742,0,0,0-1.452-2.663,5.473,5.473,0,0,0-3.141-.678H768.545v-1.41a4.815,4.815,0,0,0,2.692-1.436,5.2,5.2,0,0,0,.686-3.054V137.477a5.183,5.183,0,0,0-.686-3.081,4.929,4.929,0,0,0-2.692-1.41v-1.41h14.307v1.41a4.929,4.929,0,0,0-2.692,1.41,5.183,5.183,0,0,0-.686,3.081v46.884Z" transform="translate(-487.105 -118.785)" fill="purple"/>
        <path id="Path_367482" data-name="Path 367482" d="M874.93,160.754v21.667h36.534a5.541,5.541,0,0,0,3.141-.669,4.492,4.492,0,0,0,1.4-2.673h1.478v12.373H916a4.615,4.615,0,0,0-1.373-2.663,5.334,5.334,0,0,0-3.115-.678H864V186.7a4.719,4.719,0,0,0,2.719-1.436,5.367,5.367,0,0,0,.66-3.054V135.537a5.182,5.182,0,0,0-.687-3.081,4.928,4.928,0,0,0-2.692-1.41v-1.41h47.145a5.329,5.329,0,0,0,3.115-.679,4.842,4.842,0,0,0,1.426-2.662h1.425v12.373h-1.425A4.806,4.806,0,0,0,914.261,136a5.4,5.4,0,0,0-3.115-.668H874.93v19.735H898a5.331,5.331,0,0,0,3.115-.679,4.842,4.842,0,0,0,1.425-2.662h1.425V164.1h-1.425a4.711,4.711,0,0,0-1.452-2.674,5.42,5.42,0,0,0-3.089-.668Z" transform="translate(-522.061 -116.846)" fill="purple"/>
      </g>
    </g>
    <g id="Group_71104" data-name="Group 71104" transform="translate(206.894 166.805)">
      <path id="Path_367483" data-name="Path 367483" d="M337.225,248.205,335.9,250.6l-.26-.139a2.234,2.234,0,0,0,.158-.519q0-.278-.687-.6a9.237,9.237,0,0,0-3.955-.871,6.593,6.593,0,0,0-2.99.638,2.661,2.661,0,0,0-.97.814,1.783,1.783,0,0,0-.357,1.055,1.532,1.532,0,0,0,.278.874,1.717,1.717,0,0,0,.733.616,4.061,4.061,0,0,0,1.184.319q.683.088,2.223.134a30.364,30.364,0,0,1,3.054.2,4.394,4.394,0,0,1,1.514.468,2.875,2.875,0,0,1,1.578,2.678,3.384,3.384,0,0,1-1.43,2.808,7,7,0,0,1-4.373,1.224,10.787,10.787,0,0,1-2.8-.325,14.649,14.649,0,0,1-2.86-1.2,2.458,2.458,0,0,0-.548-.213q-.139,0-.436.333l-.251-.158,1.392-2.326.26.148a1.517,1.517,0,0,0-.176.5q0,.3,1.188.917a9.372,9.372,0,0,0,2.057.8,8.894,8.894,0,0,0,2.149.245,5.39,5.39,0,0,0,3.565-1.029,2.076,2.076,0,0,0,.807-1.631,1.746,1.746,0,0,0-1.384-1.715,3.71,3.71,0,0,0-.924-.2q-.478-.041-2.716-.125a17.467,17.467,0,0,1-2.5-.241,5.331,5.331,0,0,1-1.611-.574,2.741,2.741,0,0,1-1.044-1.038,2.861,2.861,0,0,1-.385-1.455,3.087,3.087,0,0,1,1-2.307,5.128,5.128,0,0,1,2.052-1.107,9.707,9.707,0,0,1,2.869-.4,10.506,10.506,0,0,1,2.363.252,13.685,13.685,0,0,1,2.465.868,1.5,1.5,0,0,0,.381.131q.167,0,.455-.373Z" transform="translate(-324.7 -247.196)"/>
      <path id="Path_367484" data-name="Path 367484" d="M356.875,251.891v8.267a.959.959,0,0,0,.116.542.83.83,0,0,0,.478.254v.251h-2.516v-.251a.846.846,0,0,0,.473-.254.93.93,0,0,0,.12-.542v-8.267h-3.389a.942.942,0,0,0-.548.119.855.855,0,0,0-.251.475h-.251v-2.2h.251a.859.859,0,0,0,.251.473.932.932,0,0,0,.548.12h8.105a.931.931,0,0,0,.548-.12.863.863,0,0,0,.251-.473h.251v2.2h-.251a.837.837,0,0,0-.255-.475.946.946,0,0,0-.543-.119Z" transform="translate(-334.371 -248.332)"/>
      <path id="Path_367485" data-name="Path 367485" d="M376.335,256.317v3.846h6.425a.968.968,0,0,0,.553-.119.8.8,0,0,0,.246-.475h.26v2.2h-.26a.823.823,0,0,0-.242-.473.93.93,0,0,0-.548-.12h-8.356v-.251a.828.828,0,0,0,.478-.254.961.961,0,0,0,.116-.542v-8.286a.927.927,0,0,0-.12-.547.865.865,0,0,0-.473-.251v-.251H382.7a.931.931,0,0,0,.548-.12.863.863,0,0,0,.251-.473h.251v2.2H383.5a.852.852,0,0,0-.251-.475.943.943,0,0,0-.548-.119h-6.369v3.5h4.057a.931.931,0,0,0,.548-.12.863.863,0,0,0,.251-.473h.251v2.2h-.251a.837.837,0,0,0-.255-.474.946.946,0,0,0-.543-.119Z" transform="translate(-342.905 -248.299)"/>
      <path id="Path_367486" data-name="Path 367486" d="M399.111,256.856v3.7a.642.642,0,0,0,.125.426.907.907,0,0,0,.441.241v.3h-2.488v-.3a.95.95,0,0,0,.464-.241.63.63,0,0,0,.13-.426v-8.517a.549.549,0,0,0-.134-.4,1,1,0,0,0-.46-.218v-.278h5.756a11.071,11.071,0,0,1,1.741.1,3.019,3.019,0,0,1,1.063.389,2.318,2.318,0,0,1,.891.969,3.033,3.033,0,0,1,.325,1.4,2.984,2.984,0,0,1-.32,1.39,2.329,2.329,0,0,1-.905.964,3,3,0,0,1-1.068.4,10.811,10.811,0,0,1-1.727.1Zm0-1.01h3.658a9.835,9.835,0,0,0,1.467-.078,2.038,2.038,0,0,0,.807-.3,1.985,1.985,0,0,0,0-2.938,2.048,2.048,0,0,0-.8-.3,9.808,9.808,0,0,0-1.472-.079H399.11v3.7h0Z" transform="translate(-351.245 -248.644)"/>
      <path id="Path_367487" data-name="Path 367487" d="M436.713,251.891v8.267a.959.959,0,0,0,.116.542.83.83,0,0,0,.478.254v.251h-2.516v-.251a.846.846,0,0,0,.474-.254.93.93,0,0,0,.12-.542v-8.267H432a.942.942,0,0,0-.548.119.855.855,0,0,0-.251.475h-.251v-2.2h.251a.859.859,0,0,0,.251.473.932.932,0,0,0,.548.12H440.1a.931.931,0,0,0,.548-.12.863.863,0,0,0,.251-.473h.251v2.2H440.9a.837.837,0,0,0-.255-.475.946.946,0,0,0-.543-.119Z" transform="translate(-363.607 -248.332)"/>
      <path id="Path_367488" data-name="Path 367488" d="M459.46,250.786a6.672,6.672,0,0,1,4.475,1.446,5.277,5.277,0,0,1,.919,6.914q-1.681,2.466-5.375,2.465a6.641,6.641,0,0,1-4.456-1.446,4.967,4.967,0,0,1-1.81-3.967,5.145,5.145,0,0,1,.882-2.947,5.326,5.326,0,0,1,2.628-2.011A8.071,8.071,0,0,1,459.46,250.786Zm0,1.075a4.919,4.919,0,0,0-3.649,1.39,4.2,4.2,0,0,0,0,5.894,5.532,5.532,0,0,0,7.334,0,3.939,3.939,0,0,0,1.207-2.891,4.014,4.014,0,0,0-1.207-3A5.089,5.089,0,0,0,459.46,251.861Z" transform="translate(-371.761 -248.515)"/>
      <path id="Path_367489" data-name="Path 367489" d="M487.059,253l-2.543,7.074a2.836,2.836,0,0,0-.186.658q0,.4.539.538v.251h-2.895v-.251q.511-.083.511-.482a2.3,2.3,0,0,0-.167-.714l-2.853-7.674a2.2,2.2,0,0,0-.357-.7,1.273,1.273,0,0,0-.572-.306v-.251h2.725v.251q-.53.13-.529.5a2.023,2.023,0,0,0,.139.51l2.654,7.327,2.6-7.327a1.808,1.808,0,0,0,.13-.5q0-.371-.5-.51v-.251h2.8v.251q-.538.139-.539.491a1.653,1.653,0,0,0,.12.519l2.66,7.327,2.581-7.327a1.373,1.373,0,0,0,.093-.454q0-.426-.585-.556v-.251h2.688v.251a1.259,1.259,0,0,0-.618.311,1.919,1.919,0,0,0-.395.7l-2.788,7.822a1.707,1.707,0,0,0-.13.538q0,.463.52.51v.251H489.3v-.251q.492-.084.492-.491a2.431,2.431,0,0,0-.177-.7Z" transform="translate(-381.034 -248.644)"/>
      <path id="Path_367490" data-name="Path 367490" d="M517.382,258.6h-5.456l-.783,1.742a1.33,1.33,0,0,0-.148.482q0,.315.484.445v.251h-2.562v-.251a.994.994,0,0,0,.581-.292,3.525,3.525,0,0,0,.5-.867l3.445-7.47a2.57,2.57,0,0,0,.288-.853q0-.325-.464-.4v-.251h3.017v.251q-.464.1-.464.4a4,4,0,0,0,.371.991l3.305,7.183a4.345,4.345,0,0,0,.576.983,1,1,0,0,0,.613.325v.251h-2.706v-.251q.434-.093.434-.315a2.473,2.473,0,0,0-.223-.612Zm-.435-1.01-2.27-5.089-2.3,5.089Z" transform="translate(-392.159 -248.644)"/>
      <path id="Path_367491" data-name="Path 367491" d="M535.97,256.818v3.651a.929.929,0,0,0,.12.542.846.846,0,0,0,.473.254v.251h-2.516v-.251a.828.828,0,0,0,.478-.254.96.96,0,0,0,.117-.542v-8.286a.926.926,0,0,0-.12-.547.865.865,0,0,0-.473-.251v-.251h6.174a8.1,8.1,0,0,1,1.713.148,3.133,3.133,0,0,1,1.156.5,2.55,2.55,0,0,1,1.077,2.225,2.433,2.433,0,0,1-.752,1.886,3.71,3.71,0,0,1-2.209.829l2.609,4.133a.857.857,0,0,0,.274.288,1.46,1.46,0,0,0,.479.119v.251h-2.574v-.251q.362-.074.362-.232a1.163,1.163,0,0,0-.214-.445l-2.391-3.772h-3.78Zm0-1.01h3.955a10.887,10.887,0,0,0,1.434-.069,2.368,2.368,0,0,0,.813-.255,1.485,1.485,0,0,0,.733-1.418,1.682,1.682,0,0,0-.687-1.464,3.8,3.8,0,0,0-2.145-.454h-4.1v3.66Z" transform="translate(-401.363 -248.643)"/>
      <path id="Path_367492" data-name="Path 367492" d="M558.737,260.471v-8.286a.957.957,0,0,0-.117-.542.828.828,0,0,0-.478-.255v-.251H563.4a7.643,7.643,0,0,1,3.138.491,4.377,4.377,0,0,1,2.005,2.057,5.75,5.75,0,0,1,.631,2.641,5.68,5.68,0,0,1-.835,3.012,4.079,4.079,0,0,1-1.834,1.687,7.878,7.878,0,0,1-3.106.491h-5.255v-.251a.828.828,0,0,0,.478-.254A.96.96,0,0,0,558.737,260.471Zm1.327.037h3.259a5.556,5.556,0,0,0,2.7-.5,3.3,3.3,0,0,0,1.411-1.724,5.39,5.39,0,0,0,.344-1.956,4.519,4.519,0,0,0-.975-3.04,2.94,2.94,0,0,0-1.333-.881,7.152,7.152,0,0,0-2.149-.259h-3.259v8.36Z" transform="translate(-410.186 -248.644)"/>
      <path id="Path_367493" data-name="Path 367493" d="M593.153,251.545l-1.021,2.02-.223-.111a2.591,2.591,0,0,0,.046-.371q0-.222-.6-.538a6.534,6.534,0,0,0-3.12-.686,5.291,5.291,0,0,0-2.507.547,1.706,1.706,0,0,0-1.031,1.548,1.331,1.331,0,0,0,.26.8,1.39,1.39,0,0,0,.7.5,4.1,4.1,0,0,0,.947.195q.511.047,2.191.111a15.946,15.946,0,0,1,2.121.176,3.9,3.9,0,0,1,1.23.417,2.186,2.186,0,0,1,.863.885,2.6,2.6,0,0,1,.316,1.265,2.684,2.684,0,0,1-1.179,2.289,6.314,6.314,0,0,1-3.751,1.01,9.041,9.041,0,0,1-2.419-.352,10.543,10.543,0,0,1-2.353-.964.488.488,0,0,0-.223-.092q-.139,0-.418.325l-.214-.139,1.179-1.974.223.13c-.018.074-.031.123-.037.148a.842.842,0,0,0-.046.241q0,.259.947.76a7.007,7.007,0,0,0,3.314.843,5.645,5.645,0,0,0,2.609-.538,2.122,2.122,0,0,0,.8-.7,1.621,1.621,0,0,0,.3-.922,1.34,1.34,0,0,0-.251-.8,1.36,1.36,0,0,0-.659-.5,4.159,4.159,0,0,0-.849-.185q-.47-.056-1.769-.1-1.532-.064-2.191-.152a5.9,5.9,0,0,1-1.244-.3,2.553,2.553,0,0,1-1.2-.871,2.408,2.408,0,0,1-.455-1.464,2.641,2.641,0,0,1,1.356-2.345,6.5,6.5,0,0,1,3.519-.871,9.618,9.618,0,0,1,3.918.871,1.843,1.843,0,0,0,.344.12q.148,0,.353-.343Z" transform="translate(-419.202 -248.514)"/>
      <path id="Path_367494" data-name="Path 367494" d="M620,260.471v-8.286a.956.956,0,0,0-.117-.542.828.828,0,0,0-.478-.255v-.251h5.255a7.642,7.642,0,0,1,3.138.491,4.379,4.379,0,0,1,2.006,2.057,5.75,5.75,0,0,1,.631,2.641,5.68,5.68,0,0,1-.835,3.012,4.079,4.079,0,0,1-1.834,1.687,7.877,7.877,0,0,1-3.106.491h-5.255v-.251a.828.828,0,0,0,.478-.254A.96.96,0,0,0,620,260.471Zm1.328.037h3.259a5.556,5.556,0,0,0,2.7-.5,3.3,3.3,0,0,0,1.411-1.724,5.392,5.392,0,0,0,.344-1.956,4.516,4.516,0,0,0-.975-3.04,2.94,2.94,0,0,0-1.333-.881,7.152,7.152,0,0,0-2.149-.259h-3.259v8.36Z" transform="translate(-432.622 -248.644)"/>
      <path id="Path_367495" data-name="Path 367495" d="M645.417,260.47v-8.286a.926.926,0,0,0-.12-.547.865.865,0,0,0-.473-.251v-.251h2.516v.251a.861.861,0,0,0-.473.251.928.928,0,0,0-.12.547v8.286a.929.929,0,0,0,.12.542.847.847,0,0,0,.473.254v.251h-2.516v-.251a.846.846,0,0,0,.473-.254A.93.93,0,0,0,645.417,260.47Z" transform="translate(-441.928 -248.644)"/>
      <path id="Path_367496" data-name="Path 367496" d="M668.236,252l-1.277,2.039-.213-.13a1.985,1.985,0,0,0,.093-.435q0-.241-.882-.751a6.077,6.077,0,0,0-3.034-.806,4.8,4.8,0,0,0-3.266,1.131,4.077,4.077,0,0,0-1.448,3.234,3.95,3.95,0,0,0,1.328,3.077,4.921,4.921,0,0,0,3.454,1.2,6.538,6.538,0,0,0,2.052-.32,4.967,4.967,0,0,0,1.652-.885v-1.909h-2.339a.956.956,0,0,0-.553.12.806.806,0,0,0-.246.473H663.3v-2.2h.251a.8.8,0,0,0,.246.475.962.962,0,0,0,.551.119h4.1v.251a.8.8,0,0,0-.475.246.961.961,0,0,0-.119.551v1.075a.963.963,0,0,0,.119.552.8.8,0,0,0,.475.245v.213a8.362,8.362,0,0,1-5.612,2.067,6.218,6.218,0,0,1-4.137-1.353,5.255,5.255,0,0,1-1.355-1.761,5.158,5.158,0,0,1-.529-2.271,5.081,5.081,0,0,1,1.058-3.142,5.488,5.488,0,0,1,2.516-1.826,7.125,7.125,0,0,1,2.507-.435,7.485,7.485,0,0,1,2.1.278,12.308,12.308,0,0,1,2.279.991.808.808,0,0,0,.306.111q.111,0,.436-.371Z" transform="translate(-446.32 -248.537)"/>
      <path id="Path_367497" data-name="Path 367497" d="M683.7,260.47v-8.286a.926.926,0,0,0-.12-.547.865.865,0,0,0-.473-.251v-.251h2.516v.251a.861.861,0,0,0-.473.251.928.928,0,0,0-.12.547v8.286a.929.929,0,0,0,.12.542.847.847,0,0,0,.473.254v.251h-2.516v-.251a.846.846,0,0,0,.473-.254A.93.93,0,0,0,683.7,260.47Z" transform="translate(-455.948 -248.644)"/>
      <path id="Path_367498" data-name="Path 367498" d="M699.739,251.891v8.267a.959.959,0,0,0,.116.542.83.83,0,0,0,.479.254v.251h-2.516v-.251a.846.846,0,0,0,.474-.254.931.931,0,0,0,.12-.542v-8.267h-3.389a.942.942,0,0,0-.548.119.855.855,0,0,0-.251.475h-.251v-2.2h.251a.859.859,0,0,0,.251.473.932.932,0,0,0,.548.12h8.105a.931.931,0,0,0,.548-.12.863.863,0,0,0,.251-.473h.251v2.2h-.251a.841.841,0,0,0-.255-.475.947.947,0,0,0-.543-.119Z" transform="translate(-459.927 -248.332)"/>
      <path id="Path_367499" data-name="Path 367499" d="M717.564,260.47v-8.286a.926.926,0,0,0-.12-.547.865.865,0,0,0-.473-.251v-.251h2.516v.251a.861.861,0,0,0-.473.251.928.928,0,0,0-.12.547v8.286a.929.929,0,0,0,.12.542.847.847,0,0,0,.473.254v.251H716.97v-.251a.846.846,0,0,0,.473-.254A.93.93,0,0,0,717.564,260.47Z" transform="translate(-468.348 -248.644)"/>
      <path id="Path_367500" data-name="Path 367500" d="M737.54,250.793v.158l-7.057,9.212h6.027a.965.965,0,0,0,.552-.119.833.833,0,0,0,.255-.474h.251v2.2h-.251a.844.844,0,0,0-.255-.473.954.954,0,0,0-.552-.12h-8.263v-.2l7.121-9.166H729.4a.942.942,0,0,0-.548.119.856.856,0,0,0-.251.475h-.251v-2.2h.251a.859.859,0,0,0,.251.473.932.932,0,0,0,.548.12h8.142Z" transform="translate(-472.478 -248.299)"/>
      <path id="Path_367501" data-name="Path 367501" d="M757.014,258.6h-5.456l-.783,1.742a1.33,1.33,0,0,0-.148.482q0,.315.484.445v.251h-2.562v-.251a.989.989,0,0,0,.58-.292,3.5,3.5,0,0,0,.5-.867l3.445-7.47a2.57,2.57,0,0,0,.288-.853q0-.325-.464-.4v-.251h3.018v.251q-.464.1-.464.4a4,4,0,0,0,.371.991l3.305,7.183a4.343,4.343,0,0,0,.576.983,1,1,0,0,0,.613.325v.251h-2.706v-.251q.434-.093.434-.315a2.473,2.473,0,0,0-.223-.612Zm-.434-1.01-2.27-5.089-2.3,5.089Z" transform="translate(-479.912 -248.644)"/>
      <path id="Path_367502" data-name="Path 367502" d="M777.923,251.891v8.267a.96.96,0,0,0,.116.542.83.83,0,0,0,.479.254v.251H776v-.251a.846.846,0,0,0,.473-.254.93.93,0,0,0,.12-.542v-8.267h-3.389a.942.942,0,0,0-.548.119.855.855,0,0,0-.251.475h-.251v-2.2h.251a.859.859,0,0,0,.251.473.932.932,0,0,0,.548.12h8.105a.931.931,0,0,0,.548-.12.863.863,0,0,0,.251-.473h.251v2.2h-.251a.841.841,0,0,0-.255-.475.947.947,0,0,0-.543-.119Z" transform="translate(-488.558 -248.332)"/>
      <path id="Path_367503" data-name="Path 367503" d="M795.748,260.47v-8.286a.926.926,0,0,0-.12-.547.865.865,0,0,0-.473-.251v-.251h2.516v.251a.861.861,0,0,0-.473.251.928.928,0,0,0-.12.547v8.286a.929.929,0,0,0,.12.542.847.847,0,0,0,.473.254v.251h-2.516v-.251a.846.846,0,0,0,.473-.254A.93.93,0,0,0,795.748,260.47Z" transform="translate(-496.979 -248.644)"/>
      <path id="Path_367504" data-name="Path 367504" d="M813.4,250.786a6.672,6.672,0,0,1,4.475,1.446,5.277,5.277,0,0,1,.919,6.914q-1.681,2.466-5.375,2.465a6.641,6.641,0,0,1-4.456-1.446,4.967,4.967,0,0,1-1.81-3.967,5.145,5.145,0,0,1,.882-2.947,5.325,5.325,0,0,1,2.628-2.011A8.071,8.071,0,0,1,813.4,250.786Zm0,1.075a4.919,4.919,0,0,0-3.649,1.39,4.2,4.2,0,0,0,0,5.894,5.532,5.532,0,0,0,7.334,0,3.939,3.939,0,0,0,1.207-2.891,4.014,4.014,0,0,0-1.207-3A5.089,5.089,0,0,0,813.4,251.861Z" transform="translate(-501.372 -248.515)"/>
      <path id="Path_367505" data-name="Path 367505" d="M836.633,252.759v7.711a.959.959,0,0,0,.116.542.83.83,0,0,0,.479.254v.251h-2.293v-.251a.828.828,0,0,0,.478-.254.96.96,0,0,0,.117-.542v-8.286a.926.926,0,0,0-.12-.547.865.865,0,0,0-.473-.251v-.251h3.379v.251q-.483.158-.483.482a1.1,1.1,0,0,0,.353.667l6.137,6.858v-7.21a.926.926,0,0,0-.12-.547.865.865,0,0,0-.473-.251v-.251h2.293v.251a.862.862,0,0,0-.473.251.928.928,0,0,0-.12.547v8.286a.953.953,0,0,0,.117.542.822.822,0,0,0,.478.254v.251H843.3v-.251q.483-.121.483-.38,0-.195-.446-.7Z" transform="translate(-511.546 -248.644)"/>
    </g>
    <line id="Line_85" data-name="Line 85" x2="396.232" transform="translate(206.768 160.987)"/>
  </g>
</svg>
